# MagicaVoxel @ Ephtracy

# group
o 

# material
mtllib frog_001.mtl
usemtl palette

# normals
vn -1 0 0
vn 1 0 0
vn 0 0 1
vn 0 0 -1
vn 0 -1 0
vn 0 1 0

# texcoords
vt 0.650391 0.5
vt 0.654297 0.5
vt 0.880859 0.5
vt 0.888672 0.5
vt 0.994141 0.5

# verts
v 0.3 1 -0.7
v 0.3 1 -0.8
v 0.3 1 -1
v 0.3 1.2 -0.7
v 0.3 1.2 -0.8
v 0.3 1.2 -1
v 0.4 1 -0.6
v 0.4 1 -0.7
v 0.4 1 -1
v 0.4 1 -1.1
v 0.4 1.2 -0.6
v 0.4 1.2 -0.7
v 0.4 1.2 -1
v 0.4 1.2 -1.1
v 0.5 1 -0.5
v 0.5 1 -0.6
v 0.5 1 -1.1
v 0.5 1 -1.2
v 0.5 1.1 -0.8
v 0.5 1.1 -0.9
v 0.5 1.1 -1.1
v 0.5 1.1 -1.2
v 0.5 1.2 -0.5
v 0.5 1.2 -0.6
v 0.5 1.2 -1.1
v 0.5 1.2 -1.2
v 0.5 1.3 -0.8
v 0.5 1.3 -0.9
v 0.6 1 -0.4
v 0.6 1 -0.5
v 0.6 1 -1.2
v 0.6 1 -1.3
v 0.6 1.1 -0.4
v 0.6 1.1 -0.5
v 0.6 1.1 -0.7
v 0.6 1.1 -0.8
v 0.6 1.1 -0.9
v 0.6 1.1 -1
v 0.6 1.1 -1.2
v 0.6 1.2 -0.4
v 0.6 1.2 -0.5
v 0.6 1.2 -1
v 0.6 1.2 -1.1
v 0.6 1.2 -1.2
v 0.6 1.2 -1.3
v 0.6 1.3 -0.8
v 0.6 1.3 -0.9
v 0.6 1.4 -0.7
v 0.6 1.4 -0.8
v 0.6 1.5 -0.7
v 0.6 1.5 -0.8
v 0.6 1.5 -0.9
v 0.6 1.5 -1
v 0.6 1.5 -1.1
v 0.6 1.6 -0.7
v 0.6 1.6 -0.8
v 0.6 1.6 -0.9
v 0.6 1.6 -1
v 0.6 1.7 -0.7
v 0.6 1.7 -0.9
v 0.9 1.1 -0.5
v 0.9 1.1 -0.6
v 0.9 1.1 -1.1
v 0.9 1.1 -1.2
v 0.9 1.2 -0.5
v 0.9 1.2 -0.6
v 0.9 1.2 -1.1
v 0.9 1.2 -1.2
v 1 1.1 -0.6
v 1 1.1 -0.7
v 1 1.1 -1
v 1 1.1 -1.1
v 1 1.2 -0.6
v 1 1.2 -0.7
v 1 1.2 -1
v 1 1.2 -1.1
v 1.1 1.1 -0.7
v 1.1 1.1 -0.8
v 1.1 1.1 -0.9
v 1.1 1.1 -1
v 1.1 1.2 -0.7
v 1.1 1.2 -1
v 0.4 1.1 -0.7
v 0.4 1.1 -0.8
v 0.4 1.1 -0.9
v 0.4 1.1 -1
v 0.4 1.2 -0.7
v 0.4 1.2 -0.8
v 0.4 1.2 -1
v 0.5 1.1 -0.6
v 0.5 1.1 -0.7
v 0.5 1.1 -1
v 0.5 1.1 -1.1
v 0.5 1.2 -0.6
v 0.5 1.2 -0.7
v 0.5 1.2 -1
v 0.5 1.2 -1.1
v 0.6 1.1 -0.5
v 0.6 1.1 -0.6
v 0.6 1.1 -1.1
v 0.6 1.1 -1.2
v 0.6 1.2 -0.5
v 0.6 1.2 -0.6
v 0.6 1.2 -1.1
v 0.6 1.2 -1.2
v 0.9 1 -0.4
v 0.9 1 -0.5
v 0.9 1 -1.2
v 0.9 1 -1.3
v 0.9 1.1 -0.7
v 0.9 1.1 -0.8
v 0.9 1.1 -0.9
v 0.9 1.1 -1
v 0.9 1.1 -1.2
v 0.9 1.1 -1.3
v 0.9 1.2 -0.4
v 0.9 1.2 -0.5
v 0.9 1.2 -1
v 0.9 1.2 -1.1
v 0.9 1.2 -1.2
v 0.9 1.2 -1.3
v 0.9 1.3 -0.8
v 0.9 1.3 -0.9
v 0.9 1.4 -0.7
v 0.9 1.4 -0.8
v 0.9 1.5 -0.7
v 0.9 1.5 -0.8
v 0.9 1.5 -0.9
v 0.9 1.5 -1
v 0.9 1.5 -1.1
v 0.9 1.6 -0.7
v 0.9 1.6 -0.8
v 0.9 1.6 -0.9
v 0.9 1.6 -1
v 0.9 1.7 -0.7
v 0.9 1.7 -0.9
v 1 1 -0.5
v 1 1 -0.6
v 1 1 -1.1
v 1 1 -1.2
v 1 1.1 -0.6
v 1 1.1 -0.8
v 1 1.1 -0.9
v 1 1.1 -1.1
v 1 1.2 -0.5
v 1 1.2 -0.6
v 1 1.2 -1.1
v 1 1.2 -1.2
v 1 1.3 -0.8
v 1 1.3 -0.9
v 1.1 1 -0.6
v 1.1 1 -0.7
v 1.1 1 -1
v 1.1 1 -1.1
v 1.1 1.1 -0.6
v 1.1 1.1 -0.7
v 1.1 1.1 -1
v 1.1 1.1 -1.1
v 1.1 1.2 -0.6
v 1.1 1.2 -0.7
v 1.1 1.2 -1
v 1.1 1.2 -1.1
v 1.2 1 -0.7
v 1.2 1 -0.8
v 1.2 1 -1
v 1.2 1.1 -0.8
v 1.2 1.1 -1
v 1.2 1.2 -0.7
v 1.2 1.2 -1
v 0.6 1 -0.4
v 0.6 1.1 -0.4
v 0.6 1.2 -0.4
v 0.7 1 -0.4
v 0.7 1.1 -0.4
v 0.7 1.2 -0.4
v 0.8 1.1 -0.4
v 0.8 1.2 -0.4
v 0.9 1 -0.4
v 0.9 1.2 -0.4
v 0.5 1 -0.5
v 0.5 1.2 -0.5
v 0.6 1 -0.5
v 0.6 1.1 -0.5
v 0.6 1.2 -0.5
v 0.9 1 -0.5
v 0.9 1.2 -0.5
v 1 1 -0.5
v 1 1.2 -0.5
v 0.4 1 -0.6
v 0.4 1.2 -0.6
v 0.5 1 -0.6
v 0.5 1.2 -0.6
v 1 1 -0.6
v 1 1.1 -0.6
v 1 1.2 -0.6
v 1.1 1 -0.6
v 1.1 1.1 -0.6
v 1.1 1.2 -0.6
v 0.3 1 -0.7
v 0.3 1.2 -0.7
v 0.4 1 -0.7
v 0.4 1.2 -0.7
v 0.6 1.1 -0.7
v 0.6 1.4 -0.7
v 0.6 1.5 -0.7
v 0.6 1.6 -0.7
v 0.6 1.7 -0.7
v 0.7 1.5 -0.7
v 0.7 1.6 -0.7
v 0.8 1.1 -0.7
v 0.8 1.5 -0.7
v 0.8 1.6 -0.7
v 0.9 1.1 -0.7
v 0.9 1.4 -0.7
v 0.9 1.5 -0.7
v 0.9 1.6 -0.7
v 0.9 1.7 -0.7
v 1.1 1 -0.7
v 1.1 1.1 -0.7
v 1.1 1.2 -0.7
v 1.2 1 -0.7
v 1.2 1.2 -0.7
v 0.5 1.1 -0.8
v 0.5 1.3 -0.8
v 0.6 1.1 -0.8
v 0.6 1.3 -0.8
v 0.9 1.1 -0.8
v 0.9 1.3 -0.8
v 1 1.1 -0.8
v 1 1.3 -0.8
v 0.4 1.1 -1
v 0.4 1.2 -1
v 0.5 1.1 -1
v 0.5 1.2 -1
v 1 1.1 -1
v 1 1.2 -1
v 1.1 1.1 -1
v 1.1 1.2 -1
v 0.5 1.1 -1.1
v 0.5 1.2 -1.1
v 0.6 1.1 -1.1
v 0.6 1.2 -1.1
v 0.9 1.1 -1.1
v 0.9 1.2 -1.1
v 1 1.1 -1.1
v 1 1.2 -1.1
v 0.6 1.1 -1.2
v 0.6 1.2 -1.2
v 0.7 1.1 -1.2
v 0.7 1.2 -1.2
v 0.8 1.1 -1.2
v 0.8 1.2 -1.2
v 0.9 1.1 -1.2
v 0.9 1.2 -1.2
v 0.6 1.1 -0.5
v 0.6 1.2 -0.5
v 0.7 1.1 -0.5
v 0.7 1.2 -0.5
v 0.8 1.1 -0.5
v 0.8 1.2 -0.5
v 0.9 1.1 -0.5
v 0.9 1.2 -0.5
v 0.5 1.1 -0.6
v 0.5 1.2 -0.6
v 0.6 1.1 -0.6
v 0.6 1.2 -0.6
v 0.9 1.1 -0.6
v 0.9 1.2 -0.6
v 1 1.1 -0.6
v 1 1.2 -0.6
v 0.4 1.1 -0.7
v 0.4 1.2 -0.7
v 0.5 1.1 -0.7
v 0.5 1.2 -0.7
v 1 1.1 -0.7
v 1 1.2 -0.7
v 1.1 1.1 -0.7
v 1.1 1.2 -0.7
v 0.5 1.1 -0.9
v 0.5 1.3 -0.9
v 0.6 1.1 -0.9
v 0.6 1.3 -0.9
v 0.6 1.6 -0.9
v 0.6 1.7 -0.9
v 0.7 1.6 -0.9
v 0.7 1.7 -0.9
v 0.8 1.6 -0.9
v 0.8 1.7 -0.9
v 0.9 1.1 -0.9
v 0.9 1.3 -0.9
v 0.9 1.6 -0.9
v 0.9 1.7 -0.9
v 1 1.1 -0.9
v 1 1.3 -0.9
v 0.3 1 -1
v 0.3 1.2 -1
v 0.4 1 -1
v 0.4 1.2 -1
v 0.6 1.1 -1
v 0.6 1.2 -1
v 0.6 1.5 -1
v 0.6 1.6 -1
v 0.7 1.1 -1
v 0.7 1.2 -1
v 0.7 1.5 -1
v 0.7 1.6 -1
v 0.8 1.1 -1
v 0.8 1.2 -1
v 0.8 1.5 -1
v 0.8 1.6 -1
v 0.9 1.1 -1
v 0.9 1.2 -1
v 0.9 1.5 -1
v 0.9 1.6 -1
v 1.1 1 -1
v 1.1 1.1 -1
v 1.1 1.2 -1
v 1.2 1 -1
v 1.2 1.1 -1
v 1.2 1.2 -1
v 0.4 1 -1.1
v 0.4 1.2 -1.1
v 0.5 1 -1.1
v 0.5 1.1 -1.1
v 0.5 1.2 -1.1
v 0.6 1.2 -1.1
v 0.6 1.5 -1.1
v 0.7 1.2 -1.1
v 0.7 1.5 -1.1
v 0.8 1.2 -1.1
v 0.8 1.5 -1.1
v 0.9 1.2 -1.1
v 0.9 1.5 -1.1
v 1 1 -1.1
v 1 1.1 -1.1
v 1 1.2 -1.1
v 1.1 1 -1.1
v 1.1 1.1 -1.1
v 1.1 1.2 -1.1
v 0.5 1 -1.2
v 0.5 1.1 -1.2
v 0.5 1.2 -1.2
v 0.6 1 -1.2
v 0.6 1.1 -1.2
v 0.6 1.2 -1.2
v 0.9 1 -1.2
v 0.9 1.1 -1.2
v 0.9 1.2 -1.2
v 1 1 -1.2
v 1 1.2 -1.2
v 0.6 1 -1.3
v 0.6 1.2 -1.3
v 0.7 1.1 -1.3
v 0.7 1.2 -1.3
v 0.8 1 -1.3
v 0.8 1.1 -1.3
v 0.8 1.2 -1.3
v 0.9 1 -1.3
v 0.9 1.1 -1.3
v 0.9 1.2 -1.3
v 0.6 1 -0.4
v 0.7 1 -0.4
v 0.9 1 -0.4
v 0.5 1 -0.5
v 0.6 1 -0.5
v 0.7 1 -0.5
v 0.8 1 -0.5
v 0.9 1 -0.5
v 1 1 -0.5
v 0.4 1 -0.6
v 0.5 1 -0.6
v 0.6 1 -0.6
v 0.7 1 -0.6
v 0.8 1 -0.6
v 0.9 1 -0.6
v 1 1 -0.6
v 1.1 1 -0.6
v 0.3 1 -0.7
v 0.4 1 -0.7
v 0.6 1 -0.7
v 0.7 1 -0.7
v 1 1 -0.7
v 1.1 1 -0.7
v 1.2 1 -0.7
v 0.3 1 -0.8
v 0.4 1 -0.8
v 0.5 1 -0.8
v 0.6 1 -0.8
v 0.7 1 -0.8
v 0.8 1 -0.8
v 0.9 1 -0.8
v 1 1 -0.8
v 1.1 1 -0.8
v 1.2 1 -0.8
v 0.4 1 -0.9
v 0.5 1 -0.9
v 0.7 1 -0.9
v 0.9 1 -0.9
v 1 1 -0.9
v 1.1 1 -0.9
v 0.3 1 -1
v 0.4 1 -1
v 0.5 1 -1
v 0.7 1 -1
v 0.8 1 -1
v 0.9 1 -1
v 1 1 -1
v 1.1 1 -1
v 1.2 1 -1
v 0.4 1 -1.1
v 0.5 1 -1.1
v 0.6 1 -1.1
v 0.7 1 -1.1
v 0.8 1 -1.1
v 1 1 -1.1
v 1.1 1 -1.1
v 0.5 1 -1.2
v 0.6 1 -1.2
v 0.7 1 -1.2
v 0.9 1 -1.2
v 1 1 -1.2
v 0.6 1 -1.3
v 0.8 1 -1.3
v 0.9 1 -1.3
v 0.6 1.2 -1
v 0.7 1.2 -1
v 0.8 1.2 -1
v 0.9 1.2 -1
v 0.6 1.2 -1.1
v 0.7 1.2 -1.1
v 0.8 1.2 -1.1
v 0.9 1.2 -1.1
v 0.6 1.1 -0.5
v 0.7 1.1 -0.5
v 0.8 1.1 -0.5
v 0.9 1.1 -0.5
v 0.5 1.1 -0.6
v 0.6 1.1 -0.6
v 0.7 1.1 -0.6
v 0.8 1.1 -0.6
v 0.9 1.1 -0.6
v 1 1.1 -0.6
v 0.4 1.1 -0.7
v 0.5 1.1 -0.7
v 0.6 1.1 -0.7
v 0.8 1.1 -0.7
v 0.9 1.1 -0.7
v 1 1.1 -0.7
v 1.1 1.1 -0.7
v 0.4 1.1 -0.8
v 0.5 1.1 -0.8
v 0.6 1.1 -0.8
v 0.9 1.1 -0.8
v 1 1.1 -0.8
v 1.1 1.1 -0.8
v 0.4 1.1 -0.9
v 0.5 1.1 -0.9
v 0.6 1.1 -0.9
v 0.9 1.1 -0.9
v 1 1.1 -0.9
v 1.1 1.1 -0.9
v 0.4 1.1 -1
v 0.5 1.1 -1
v 0.6 1.1 -1
v 0.7 1.1 -1
v 0.8 1.1 -1
v 0.9 1.1 -1
v 1 1.1 -1
v 1.1 1.1 -1
v 0.5 1.1 -1.1
v 0.6 1.1 -1.1
v 0.7 1.1 -1.1
v 0.8 1.1 -1.1
v 0.9 1.1 -1.1
v 1 1.1 -1.1
v 0.6 1.1 -1.2
v 0.7 1.1 -1.2
v 0.8 1.1 -1.2
v 0.9 1.1 -1.2
v 0.6 1.2 -0.4
v 0.7 1.2 -0.4
v 0.8 1.2 -0.4
v 0.9 1.2 -0.4
v 0.5 1.2 -0.5
v 0.6 1.2 -0.5
v 0.7 1.2 -0.5
v 0.8 1.2 -0.5
v 0.9 1.2 -0.5
v 1 1.2 -0.5
v 0.4 1.2 -0.6
v 0.5 1.2 -0.6
v 0.6 1.2 -0.6
v 0.9 1.2 -0.6
v 1 1.2 -0.6
v 1.1 1.2 -0.6
v 0.3 1.2 -0.7
v 0.4 1.2 -0.7
v 0.5 1.2 -0.7
v 1 1.2 -0.7
v 1.1 1.2 -0.7
v 1.2 1.2 -0.7
v 0.3 1.2 -0.8
v 0.4 1.2 -0.8
v 0.3 1.2 -1
v 0.4 1.2 -1
v 0.5 1.2 -1
v 1 1.2 -1
v 1.1 1.2 -1
v 1.2 1.2 -1
v 0.4 1.2 -1.1
v 0.5 1.2 -1.1
v 0.6 1.2 -1.1
v 0.9 1.2 -1.1
v 1 1.2 -1.1
v 1.1 1.2 -1.1
v 0.5 1.2 -1.2
v 0.6 1.2 -1.2
v 0.7 1.2 -1.2
v 0.8 1.2 -1.2
v 0.9 1.2 -1.2
v 1 1.2 -1.2
v 0.6 1.2 -1.3
v 0.7 1.2 -1.3
v 0.8 1.2 -1.3
v 0.9 1.2 -1.3
v 0.5 1.3 -0.8
v 0.6 1.3 -0.8
v 0.9 1.3 -0.8
v 1 1.3 -0.8
v 0.5 1.3 -0.9
v 0.6 1.3 -0.9
v 0.9 1.3 -0.9
v 1 1.3 -0.9
v 0.6 1.5 -1
v 0.7 1.5 -1
v 0.8 1.5 -1
v 0.9 1.5 -1
v 0.6 1.5 -1.1
v 0.7 1.5 -1.1
v 0.8 1.5 -1.1
v 0.9 1.5 -1.1
v 0.6 1.6 -0.9
v 0.7 1.6 -0.9
v 0.8 1.6 -0.9
v 0.9 1.6 -0.9
v 0.6 1.6 -1
v 0.7 1.6 -1
v 0.8 1.6 -1
v 0.9 1.6 -1
v 0.6 1.7 -0.7
v 0.9 1.7 -0.7
v 0.7 1.7 -0.8
v 0.8 1.7 -0.8
v 0.6 1.7 -0.9
v 0.7 1.7 -0.9
v 0.8 1.7 -0.9
v 0.9 1.7 -0.9

# faces
f 4/1/1 2/1/1 1/1/1
f 5/2/1 3/2/1 2/2/1
f 5/1/1 2/1/1 4/1/1
f 6/2/1 3/2/1 5/2/1
f 11/1/1 8/1/1 7/1/1
f 12/1/1 8/1/1 11/1/1
f 13/2/1 10/2/1 9/2/1
f 14/2/1 10/2/1 13/2/1
f 21/2/1 18/2/1 17/2/1
f 22/2/1 18/2/1 21/2/1
f 23/2/1 16/2/1 15/2/1
f 24/2/1 16/2/1 23/2/1
f 25/1/1 22/1/1 21/1/1
f 26/1/1 22/1/1 25/1/1
f 27/4/1 20/4/1 19/4/1
f 28/4/1 20/4/1 27/4/1
f 33/1/1 30/1/1 29/1/1
f 34/1/1 30/1/1 33/1/1
f 39/2/1 32/2/1 31/2/1
f 40/2/1 34/2/1 33/2/1
f 41/2/1 34/2/1 40/2/1
f 42/3/1 38/3/1 37/3/1
f 44/2/1 32/2/1 39/2/1
f 45/2/1 32/2/1 44/2/1
f 46/3/1 36/3/1 35/3/1
f 47/3/1 42/3/1 37/3/1
f 48/3/1 46/3/1 35/3/1
f 48/3/1 47/3/1 46/3/1
f 49/3/1 47/3/1 48/3/1
f 50/4/1 49/4/1 48/4/1
f 51/3/1 47/3/1 49/3/1
f 51/4/1 49/4/1 50/4/1
f 52/3/1 42/3/1 47/3/1
f 52/3/1 47/3/1 51/3/1
f 53/4/1 43/4/1 42/4/1
f 53/3/1 42/3/1 52/3/1
f 54/4/1 43/4/1 53/4/1
f 55/5/1 51/5/1 50/5/1
f 56/3/1 52/3/1 51/3/1
f 56/5/1 51/5/1 55/5/1
f 57/4/1 53/4/1 52/4/1
f 57/3/1 52/3/1 56/3/1
f 58/4/1 53/4/1 57/4/1
f 59/3/1 56/3/1 55/3/1
f 59/3/1 57/3/1 56/3/1
f 60/3/1 57/3/1 59/3/1
f 65/2/1 62/2/1 61/2/1
f 66/2/1 62/2/1 65/2/1
f 67/1/1 64/1/1 63/1/1
f 68/1/1 64/1/1 67/1/1
f 73/2/1 70/2/1 69/2/1
f 74/2/1 70/2/1 73/2/1
f 75/1/1 72/1/1 71/1/1
f 76/1/1 72/1/1 75/1/1
f 81/1/1 78/1/1 77/1/1
f 81/1/1 80/1/1 79/1/1
f 81/1/1 79/1/1 78/1/1
f 82/1/1 80/1/1 81/1/1
f 83/1/2 84/1/2 87/1/2
f 85/2/2 86/2/2 88/2/2
f 87/1/2 84/1/2 88/1/2
f 84/2/2 85/2/2 88/2/2
f 88/2/2 86/2/2 89/2/2
f 90/1/2 91/1/2 94/1/2
f 94/1/2 91/1/2 95/1/2
f 92/2/2 93/2/2 96/2/2
f 96/2/2 93/2/2 97/2/2
f 98/2/2 99/2/2 102/2/2
f 102/2/2 99/2/2 103/2/2
f 100/1/2 101/1/2 104/1/2
f 104/1/2 101/1/2 105/1/2
f 108/1/2 109/1/2 114/1/2
f 114/1/2 109/1/2 115/1/2
f 106/2/2 107/2/2 116/2/2
f 116/2/2 107/2/2 117/2/2
f 112/3/2 113/3/2 118/3/2
f 114/2/2 115/2/2 120/2/2
f 120/2/2 115/2/2 121/2/2
f 110/3/2 111/3/2 122/3/2
f 112/3/2 118/3/2 123/3/2
f 110/3/2 122/3/2 124/3/2
f 122/3/2 123/3/2 124/3/2
f 124/3/2 123/3/2 125/3/2
f 124/4/2 125/4/2 126/4/2
f 125/3/2 123/3/2 127/3/2
f 126/4/2 125/4/2 127/4/2
f 123/3/2 118/3/2 128/3/2
f 127/3/2 123/3/2 128/3/2
f 118/4/2 119/4/2 129/4/2
f 128/3/2 118/3/2 129/3/2
f 129/4/2 119/4/2 130/4/2
f 126/5/2 127/5/2 131/5/2
f 127/3/2 128/3/2 132/3/2
f 131/5/2 127/5/2 132/5/2
f 128/4/2 129/4/2 133/4/2
f 132/3/2 128/3/2 133/3/2
f 133/4/2 129/4/2 134/4/2
f 131/3/2 132/3/2 135/3/2
f 132/3/2 133/3/2 135/3/2
f 135/3/2 133/3/2 136/3/2
f 137/2/2 138/2/2 141/2/2
f 139/1/2 140/1/2 144/1/2
f 137/2/2 141/2/2 145/2/2
f 145/2/2 141/2/2 146/2/2
f 144/1/2 140/1/2 147/1/2
f 147/1/2 140/1/2 148/1/2
f 142/4/2 143/4/2 149/4/2
f 149/4/2 143/4/2 150/4/2
f 151/1/2 152/1/2 155/1/2
f 155/1/2 152/1/2 156/1/2
f 153/2/2 154/2/2 157/2/2
f 157/2/2 154/2/2 158/2/2
f 155/2/2 156/2/2 159/2/2
f 159/2/2 156/2/2 160/2/2
f 157/1/2 158/1/2 161/1/2
f 161/1/2 158/1/2 162/1/2
f 163/1/2 164/1/2 166/1/2
f 164/2/2 165/2/2 166/2/2
f 166/2/2 165/2/2 167/2/2
f 163/1/2 166/1/2 168/1/2
f 166/1/2 167/1/2 168/1/2
f 168/1/2 167/1/2 169/1/2
f 173/1/3 171/1/3 170/1/3
f 174/2/3 172/2/3 171/2/3
f 174/1/3 171/1/3 173/1/3
f 175/2/3 172/2/3 174/2/3
f 176/2/3 174/2/3 173/2/3
f 176/1/3 175/1/3 174/1/3
f 177/1/3 175/1/3 176/1/3
f 178/2/3 176/2/3 173/2/3
f 178/2/3 177/2/3 176/2/3
f 179/2/3 177/2/3 178/2/3
f 182/2/3 181/2/3 180/2/3
f 183/2/3 181/2/3 182/2/3
f 184/2/3 181/2/3 183/2/3
f 187/2/3 186/2/3 185/2/3
f 188/2/3 186/2/3 187/2/3
f 191/1/3 190/1/3 189/1/3
f 192/1/3 190/1/3 191/1/3
f 196/1/3 194/1/3 193/1/3
f 197/2/3 195/2/3 194/2/3
f 197/1/3 194/1/3 196/1/3
f 198/2/3 195/2/3 197/2/3
f 201/1/3 200/1/3 199/1/3
f 202/1/3 200/1/3 201/1/3
f 208/4/3 205/4/3 204/4/3
f 208/5/3 206/5/3 205/5/3
f 209/3/3 207/3/3 206/3/3
f 209/5/3 206/5/3 208/5/3
f 210/3/3 204/3/3 203/3/3
f 211/4/3 208/4/3 204/4/3
f 211/3/3 209/3/3 208/3/3
f 212/3/3 207/3/3 209/3/3
f 212/3/3 209/3/3 211/3/3
f 213/3/3 204/3/3 210/3/3
f 214/4/3 211/4/3 204/4/3
f 214/3/3 204/3/3 213/3/3
f 215/5/3 212/5/3 211/5/3
f 215/4/3 211/4/3 214/4/3
f 216/3/3 207/3/3 212/3/3
f 216/5/3 212/5/3 215/5/3
f 217/3/3 207/3/3 216/3/3
f 221/1/3 219/1/3 218/1/3
f 221/1/3 220/1/3 219/1/3
f 222/1/3 220/1/3 221/1/3
f 225/4/3 224/4/3 223/4/3
f 226/4/3 224/4/3 225/4/3
f 229/4/3 228/4/3 227/4/3
f 230/4/3 228/4/3 229/4/3
f 233/2/3 232/2/3 231/2/3
f 234/2/3 232/2/3 233/2/3
f 237/1/3 236/1/3 235/1/3
f 238/1/3 236/1/3 237/1/3
f 241/1/3 240/1/3 239/1/3
f 242/1/3 240/1/3 241/1/3
f 245/1/3 244/1/3 243/1/3
f 246/1/3 244/1/3 245/1/3
f 249/2/3 248/2/3 247/2/3
f 250/2/3 248/2/3 249/2/3
f 251/1/3 250/1/3 249/1/3
f 252/1/3 250/1/3 251/1/3
f 253/2/3 252/2/3 251/2/3
f 254/2/3 252/2/3 253/2/3
f 255/2/4 256/2/4 257/2/4
f 257/2/4 256/2/4 258/2/4
f 257/1/4 258/1/4 259/1/4
f 259/1/4 258/1/4 260/1/4
f 259/2/4 260/2/4 261/2/4
f 261/2/4 260/2/4 262/2/4
f 263/2/4 264/2/4 265/2/4
f 265/2/4 264/2/4 266/2/4
f 267/2/4 268/2/4 269/2/4
f 269/2/4 268/2/4 270/2/4
f 271/1/4 272/1/4 273/1/4
f 273/1/4 272/1/4 274/1/4
f 275/2/4 276/2/4 277/2/4
f 277/2/4 276/2/4 278/2/4
f 279/4/4 280/4/4 281/4/4
f 281/4/4 280/4/4 282/4/4
f 283/3/4 284/3/4 285/3/4
f 285/3/4 284/3/4 286/3/4
f 285/4/4 286/4/4 287/4/4
f 287/4/4 286/4/4 288/4/4
f 287/3/4 288/3/4 291/3/4
f 291/3/4 288/3/4 292/3/4
f 289/4/4 290/4/4 293/4/4
f 293/4/4 290/4/4 294/4/4
f 295/2/4 296/2/4 297/2/4
f 297/2/4 296/2/4 298/2/4
f 299/3/4 300/3/4 303/3/4
f 303/3/4 300/3/4 304/3/4
f 301/4/4 302/4/4 305/4/4
f 305/4/4 302/4/4 306/4/4
f 303/3/4 304/3/4 307/3/4
f 307/3/4 304/3/4 308/3/4
f 305/3/4 306/3/4 309/3/4
f 309/3/4 306/3/4 310/3/4
f 307/3/4 308/3/4 311/3/4
f 311/3/4 308/3/4 312/3/4
f 309/4/4 310/4/4 313/4/4
f 313/4/4 310/4/4 314/4/4
f 315/2/4 316/2/4 318/2/4
f 316/1/4 317/1/4 319/1/4
f 318/2/4 316/2/4 319/2/4
f 319/1/4 317/1/4 320/1/4
f 321/2/4 322/2/4 323/2/4
f 323/2/4 322/2/4 324/2/4
f 324/2/4 322/2/4 325/2/4
f 326/4/4 327/4/4 328/4/4
f 328/4/4 327/4/4 329/4/4
f 328/3/4 329/3/4 330/3/4
f 330/3/4 329/3/4 331/3/4
f 330/4/4 331/4/4 332/4/4
f 332/4/4 331/4/4 333/4/4
f 334/2/4 335/2/4 337/2/4
f 335/1/4 336/1/4 338/1/4
f 337/2/4 335/2/4 338/2/4
f 338/1/4 336/1/4 339/1/4
f 340/2/4 341/2/4 343/2/4
f 341/1/4 342/1/4 344/1/4
f 343/2/4 341/2/4 344/2/4
f 344/1/4 342/1/4 345/1/4
f 346/1/4 347/1/4 349/1/4
f 347/1/4 348/1/4 349/1/4
f 349/1/4 348/1/4 350/1/4
f 351/2/4 352/2/4 353/2/4
f 353/2/4 352/2/4 354/2/4
f 351/2/4 353/2/4 355/2/4
f 353/1/4 354/1/4 356/1/4
f 355/2/4 353/2/4 356/2/4
f 356/1/4 354/1/4 357/1/4
f 355/1/4 356/1/4 358/1/4
f 356/2/4 357/2/4 359/2/4
f 358/1/4 356/1/4 359/1/4
f 359/2/4 357/2/4 360/2/4
f 365/1/5 362/1/5 361/1/5
f 366/2/5 363/2/5 362/2/5
f 366/1/5 362/1/5 365/1/5
f 367/2/5 363/2/5 366/2/5
f 368/2/5 363/2/5 367/2/5
f 371/2/5 365/2/5 364/2/5
f 371/2/5 366/2/5 365/2/5
f 372/2/5 366/2/5 371/2/5
f 373/1/5 367/1/5 366/1/5
f 373/2/5 366/2/5 372/2/5
f 374/2/5 369/2/5 368/2/5
f 374/1/5 367/1/5 373/1/5
f 374/2/5 368/2/5 367/2/5
f 375/2/5 369/2/5 374/2/5
f 376/2/5 369/2/5 375/2/5
f 379/1/5 371/1/5 370/1/5
f 379/1/5 372/1/5 371/1/5
f 380/2/5 373/2/5 372/2/5
f 380/2/5 374/2/5 373/2/5
f 380/1/5 372/1/5 379/1/5
f 381/2/5 374/2/5 380/2/5
f 382/1/5 377/1/5 376/1/5
f 382/2/5 376/2/5 375/2/5
f 383/1/5 377/1/5 382/1/5
f 385/1/5 379/1/5 378/1/5
f 386/2/5 380/2/5 379/2/5
f 386/1/5 379/1/5 385/1/5
f 387/2/5 380/2/5 386/2/5
f 388/1/5 381/1/5 380/1/5
f 388/2/5 380/2/5 387/2/5
f 389/2/5 374/2/5 381/2/5
f 389/1/5 381/1/5 388/1/5
f 390/1/5 375/1/5 374/1/5
f 390/2/5 374/2/5 389/2/5
f 391/2/5 382/2/5 375/2/5
f 391/1/5 375/1/5 390/1/5
f 391/2/5 383/2/5 382/2/5
f 392/2/5 383/2/5 391/2/5
f 393/1/5 384/1/5 383/1/5
f 393/2/5 383/2/5 392/2/5
f 394/1/5 384/1/5 393/1/5
f 395/1/5 387/1/5 386/1/5
f 395/2/5 386/2/5 385/2/5
f 396/2/5 392/2/5 391/2/5
f 396/1/5 387/1/5 395/1/5
f 396/2/5 388/2/5 387/2/5
f 396/2/5 389/2/5 388/2/5
f 396/2/5 391/2/5 390/2/5
f 396/2/5 390/2/5 389/2/5
f 397/2/5 392/2/5 396/2/5
f 398/2/5 392/2/5 397/2/5
f 399/1/5 393/1/5 392/1/5
f 399/2/5 392/2/5 398/2/5
f 400/2/5 394/2/5 393/2/5
f 400/1/5 393/1/5 399/1/5
f 401/2/5 395/2/5 385/2/5
f 401/2/5 396/2/5 395/2/5
f 402/2/5 396/2/5 401/2/5
f 403/1/5 397/1/5 396/1/5
f 403/2/5 396/2/5 402/2/5
f 404/2/5 398/2/5 397/2/5
f 404/1/5 397/1/5 403/1/5
f 405/2/5 398/2/5 404/2/5
f 406/1/5 399/1/5 398/1/5
f 406/2/5 398/2/5 405/2/5
f 407/2/5 400/2/5 399/2/5
f 407/1/5 399/1/5 406/1/5
f 408/2/5 394/2/5 400/2/5
f 408/2/5 400/2/5 407/2/5
f 409/2/5 394/2/5 408/2/5
f 410/2/5 403/2/5 402/2/5
f 410/2/5 404/2/5 403/2/5
f 411/2/5 404/2/5 410/2/5
f 412/2/5 404/2/5 411/2/5
f 413/1/5 405/1/5 404/1/5
f 413/2/5 404/2/5 412/2/5
f 414/2/5 407/2/5 406/2/5
f 414/1/5 405/1/5 413/1/5
f 414/2/5 406/2/5 405/2/5
f 414/2/5 408/2/5 407/2/5
f 415/2/5 408/2/5 414/2/5
f 416/2/5 408/2/5 415/2/5
f 417/2/5 412/2/5 411/2/5
f 418/1/5 413/1/5 412/1/5
f 418/2/5 412/2/5 417/2/5
f 419/2/5 414/2/5 413/2/5
f 419/1/5 413/1/5 418/1/5
f 420/1/5 415/1/5 414/1/5
f 421/1/5 415/1/5 420/1/5
f 422/2/5 419/2/5 418/2/5
f 423/2/5 414/2/5 419/2/5
f 423/2/5 419/2/5 422/2/5
f 423/1/5 420/1/5 414/1/5
f 424/1/5 420/1/5 423/1/5
f 429/4/5 426/4/5 425/4/5
f 430/3/5 427/3/5 426/3/5
f 430/4/5 426/4/5 429/4/5
f 431/4/5 428/4/5 427/4/5
f 431/3/5 427/3/5 430/3/5
f 432/4/5 428/4/5 431/4/5
f 433/2/6 434/2/6 438/2/6
f 434/1/6 435/1/6 439/1/6
f 438/2/6 434/2/6 439/2/6
f 435/2/6 436/2/6 440/2/6
f 439/1/6 435/1/6 440/1/6
f 440/2/6 436/2/6 441/2/6
f 437/1/6 438/1/6 444/1/6
f 438/2/6 439/2/6 445/2/6
f 439/2/6 440/2/6 445/2/6
f 444/1/6 438/1/6 445/1/6
f 440/1/6 441/1/6 446/1/6
f 445/2/6 440/2/6 446/2/6
f 441/2/6 442/2/6 447/2/6
f 446/1/6 441/1/6 447/1/6
f 447/2/6 442/2/6 448/2/6
f 443/2/6 444/2/6 450/2/6
f 444/2/6 445/2/6 450/2/6
f 450/2/6 445/2/6 451/2/6
f 451/2/6 445/2/6 452/2/6
f 448/2/6 449/2/6 453/2/6
f 447/2/6 448/2/6 453/2/6
f 453/2/6 449/2/6 454/2/6
f 454/2/6 449/2/6 455/2/6
f 450/1/6 451/1/6 456/1/6
f 456/1/6 451/1/6 457/1/6
f 454/1/6 455/1/6 460/1/6
f 460/1/6 455/1/6 461/1/6
f 456/2/6 457/2/6 462/2/6
f 457/1/6 458/1/6 463/1/6
f 462/2/6 457/2/6 463/2/6
f 463/1/6 458/1/6 464/1/6
f 459/1/6 460/1/6 467/1/6
f 460/2/6 461/2/6 468/2/6
f 467/1/6 460/1/6 468/1/6
f 468/2/6 461/2/6 469/2/6
f 463/2/6 464/2/6 470/2/6
f 464/2/6 465/2/6 470/2/6
f 470/2/6 465/2/6 471/2/6
f 465/1/6 466/1/6 472/1/6
f 471/2/6 465/2/6 472/2/6
f 466/2/6 467/2/6 473/2/6
f 472/1/6 466/1/6 473/1/6
f 467/2/6 468/2/6 473/2/6
f 473/2/6 468/2/6 474/2/6
f 474/2/6 468/2/6 475/2/6
f 471/1/6 472/1/6 476/1/6
f 472/2/6 473/2/6 477/2/6
f 476/1/6 472/1/6 477/1/6
f 473/1/6 474/1/6 478/1/6
f 477/2/6 473/2/6 478/2/6
f 478/1/6 474/1/6 479/1/6
f 480/2/6 481/2/6 485/2/6
f 481/1/6 482/1/6 486/1/6
f 485/2/6 481/2/6 486/2/6
f 482/2/6 483/2/6 487/2/6
f 486/1/6 482/1/6 487/1/6
f 487/2/6 483/2/6 488/2/6
f 484/2/6 485/2/6 491/2/6
f 491/2/6 485/2/6 492/2/6
f 488/2/6 489/2/6 493/2/6
f 493/2/6 489/2/6 494/2/6
f 490/1/6 491/1/6 497/1/6
f 497/1/6 491/1/6 498/1/6
f 494/2/6 495/2/6 499/2/6
f 499/2/6 495/2/6 500/2/6
f 496/1/6 497/1/6 502/1/6
f 502/1/6 497/1/6 503/1/6
f 502/2/6 503/2/6 504/2/6
f 504/2/6 503/2/6 505/2/6
f 500/1/6 501/1/6 508/1/6
f 508/1/6 501/1/6 509/1/6
f 505/2/6 506/2/6 510/2/6
f 510/2/6 506/2/6 511/2/6
f 507/1/6 508/1/6 514/1/6
f 514/1/6 508/1/6 515/1/6
f 511/1/6 512/1/6 516/1/6
f 516/1/6 512/1/6 517/1/6
f 513/1/6 514/1/6 520/1/6
f 520/1/6 514/1/6 521/1/6
f 517/2/6 518/2/6 522/2/6
f 518/1/6 519/1/6 523/1/6
f 522/2/6 518/2/6 523/2/6
f 519/2/6 520/2/6 524/2/6
f 523/1/6 519/1/6 524/1/6
f 524/2/6 520/2/6 525/2/6
f 526/4/6 527/4/6 530/4/6
f 530/4/6 527/4/6 531/4/6
f 528/4/6 529/4/6 532/4/6
f 532/4/6 529/4/6 533/4/6
f 534/4/6 535/4/6 538/4/6
f 535/3/6 536/3/6 539/3/6
f 538/4/6 535/4/6 539/4/6
f 536/4/6 537/4/6 540/4/6
f 539/3/6 536/3/6 540/3/6
f 540/4/6 537/4/6 541/4/6
f 542/4/6 543/4/6 546/4/6
f 543/3/6 544/3/6 547/3/6
f 546/4/6 543/4/6 547/4/6
f 544/4/6 545/4/6 548/4/6
f 547/3/6 544/3/6 548/3/6
f 548/4/6 545/4/6 549/4/6
f 550/3/6 551/3/6 552/3/6
f 552/3/6 551/3/6 553/3/6
f 550/3/6 552/3/6 554/3/6
f 552/4/6 553/4/6 555/4/6
f 554/3/6 552/3/6 555/3/6
f 553/3/6 551/3/6 556/3/6
f 555/4/6 553/4/6 556/4/6
f 556/3/6 551/3/6 557/3/6
