# MagicaVoxel @ Ephtracy

# group
o 

# material
mtllib flower_001.mtl
usemtl palette

# normals
vn -1 0 0
vn 1 0 0
vn 0 0 1
vn 0 0 -1
vn 0 -1 0
vn 0 1 0

# texcoords
vt 0.412109 0.5
vt 0.841797 0.5
vt 0.888672 0.5

# verts
v 0 1 -0.3
v 0 1 -0.4
v 0 1.1 -0.3
v 0 1.1 -0.4
v 0 1.5 -0.2
v 0 1.5 -0.3
v 0 1.6 -0.2
v 0 1.6 -0.3
v 0.1 1 -0.2
v 0.1 1 -0.3
v 0.1 1.1 -0.3
v 0.1 1.3 -0.1
v 0.1 1.3 -0.2
v 0.1 1.4 -0.1
v 0.1 1.4 -0.2
v 0.1 1.5 -0.1
v 0.1 1.5 -0.2
v 0.1 1.5 -0.3
v 0.1 1.5 -0.4
v 0.1 1.6 -0.2
v 0.1 1.6 -0.3
v 0.1 1.7 -0.3
v 0.1 1.7 -0.4
v 0.1 1.8 -0.1
v 0.1 1.8 -0.3
v 0.2 1 0
v 0.2 1 -0.2
v 0.2 1 -0.3
v 0.2 1 -0.4
v 0.2 1.1 0
v 0.2 1.1 -0.2
v 0.2 1.1 -0.3
v 0.2 1.1 -0.4
v 0.1 1 -0.3
v 0.1 1 -0.4
v 0.1 1.1 -0.3
v 0.1 1.1 -0.4
v 0.2 1 -0.2
v 0.2 1 -0.3
v 0.2 1.1 -0.2
v 0.2 1.1 -0.3
v 0.2 1.3 -0.1
v 0.2 1.3 -0.2
v 0.2 1.4 -0.1
v 0.2 1.4 -0.2
v 0.2 1.4 -0.3
v 0.2 1.5 -0.1
v 0.2 1.5 -0.2
v 0.2 1.5 -0.3
v 0.2 1.5 -0.4
v 0.2 1.7 -0.2
v 0.2 1.7 -0.3
v 0.2 1.7 -0.4
v 0.2 1.8 -0.1
v 0.2 1.8 -0.3
v 0.3 1 0
v 0.3 1 -0.2
v 0.3 1 -0.3
v 0.3 1 -0.4
v 0.3 1.1 0
v 0.3 1.1 -0.2
v 0.3 1.1 -0.3
v 0.3 1.1 -0.4
v 0.3 1.4 -0.2
v 0.3 1.4 -0.3
v 0.3 1.5 -0.2
v 0.3 1.5 -0.3
v 0.3 1.7 -0.2
v 0.3 1.7 -0.3
v 0.2 1 0
v 0.2 1.1 0
v 0.3 1 0
v 0.3 1.1 0
v 0.1 1.3 -0.1
v 0.1 1.4 -0.1
v 0.1 1.5 -0.1
v 0.1 1.8 -0.1
v 0.2 1.3 -0.1
v 0.2 1.4 -0.1
v 0.2 1.5 -0.1
v 0.2 1.8 -0.1
v 0 1.5 -0.2
v 0 1.6 -0.2
v 0.1 1 -0.2
v 0.1 1.3 -0.2
v 0.1 1.4 -0.2
v 0.1 1.5 -0.2
v 0.1 1.6 -0.2
v 0.2 1 -0.2
v 0.2 1.1 -0.2
v 0.2 1.3 -0.2
v 0.2 1.4 -0.2
v 0.2 1.5 -0.2
v 0.2 1.7 -0.2
v 0.3 1.4 -0.2
v 0.3 1.5 -0.2
v 0.3 1.7 -0.2
v 0 1 -0.3
v 0 1.1 -0.3
v 0.1 1 -0.3
v 0.1 1.1 -0.3
v 0.2 1 -0.3
v 0.2 1.1 -0.3
v 0.3 1 -0.3
v 0.3 1.1 -0.3
v 0.2 1 -0.2
v 0.2 1.1 -0.2
v 0.3 1 -0.2
v 0.3 1.1 -0.2
v 0 1.5 -0.3
v 0 1.6 -0.3
v 0.1 1 -0.3
v 0.1 1.1 -0.3
v 0.1 1.5 -0.3
v 0.1 1.6 -0.3
v 0.1 1.7 -0.3
v 0.1 1.8 -0.3
v 0.2 1 -0.3
v 0.2 1.1 -0.3
v 0.2 1.4 -0.3
v 0.2 1.5 -0.3
v 0.2 1.7 -0.3
v 0.2 1.8 -0.3
v 0.3 1.4 -0.3
v 0.3 1.5 -0.3
v 0.3 1.7 -0.3
v 0 1 -0.4
v 0 1.1 -0.4
v 0.1 1 -0.4
v 0.1 1.1 -0.4
v 0.1 1.5 -0.4
v 0.1 1.7 -0.4
v 0.2 1 -0.4
v 0.2 1.1 -0.4
v 0.2 1.5 -0.4
v 0.2 1.7 -0.4
v 0.3 1 -0.4
v 0.3 1.1 -0.4
v 0.2 1 0
v 0.3 1 0
v 0.1 1 -0.2
v 0.2 1 -0.2
v 0.3 1 -0.2
v 0 1 -0.3
v 0.1 1 -0.3
v 0.2 1 -0.3
v 0.3 1 -0.3
v 0 1 -0.4
v 0.1 1 -0.4
v 0.2 1 -0.4
v 0.3 1 -0.4
v 0.1 1.3 -0.1
v 0.2 1.3 -0.1
v 0.1 1.3 -0.2
v 0.2 1.3 -0.2
v 0.2 1.4 -0.2
v 0.3 1.4 -0.2
v 0.2 1.4 -0.3
v 0.3 1.4 -0.3
v 0.1 1.5 -0.1
v 0.2 1.5 -0.1
v 0 1.5 -0.2
v 0.1 1.5 -0.2
v 0.2 1.5 -0.2
v 0 1.5 -0.3
v 0.1 1.5 -0.3
v 0.2 1.5 -0.3
v 0.1 1.5 -0.4
v 0.2 1.5 -0.4
v 0.2 1.1 0
v 0.3 1.1 0
v 0.2 1.1 -0.2
v 0.3 1.1 -0.2
v 0 1.1 -0.3
v 0.1 1.1 -0.3
v 0.2 1.1 -0.3
v 0.3 1.1 -0.3
v 0 1.1 -0.4
v 0.1 1.1 -0.4
v 0.2 1.1 -0.4
v 0.3 1.1 -0.4
v 0.1 1.4 -0.1
v 0.2 1.4 -0.1
v 0.1 1.4 -0.2
v 0.2 1.4 -0.2
v 0 1.6 -0.2
v 0.1 1.6 -0.2
v 0 1.6 -0.3
v 0.1 1.6 -0.3
v 0.2 1.7 -0.2
v 0.3 1.7 -0.2
v 0.1 1.7 -0.3
v 0.2 1.7 -0.3
v 0.3 1.7 -0.3
v 0.1 1.7 -0.4
v 0.2 1.7 -0.4
v 0.1 1.8 -0.1
v 0.2 1.8 -0.1
v 0.1 1.8 -0.3
v 0.2 1.8 -0.3

# faces
f 3/3/1 2/3/1 1/3/1
f 4/3/1 2/3/1 3/3/1
f 7/2/1 6/2/1 5/2/1
f 8/2/1 6/2/1 7/2/1
f 11/3/1 10/3/1 9/3/1
f 13/3/1 11/3/1 9/3/1
f 14/3/1 13/3/1 12/3/1
f 15/3/1 11/3/1 13/3/1
f 15/3/1 13/3/1 14/3/1
f 17/3/1 11/3/1 15/3/1
f 18/3/1 11/3/1 17/3/1
f 20/2/1 17/2/1 16/2/1
f 21/2/1 19/2/1 18/2/1
f 22/2/1 19/2/1 21/2/1
f 22/2/1 21/2/1 20/2/1
f 23/2/1 19/2/1 22/2/1
f 24/2/1 20/2/1 16/2/1
f 24/2/1 22/2/1 20/2/1
f 25/2/1 22/2/1 24/2/1
f 30/3/1 27/3/1 26/3/1
f 31/3/1 27/3/1 30/3/1
f 32/3/1 29/3/1 28/3/1
f 33/3/1 29/3/1 32/3/1
f 34/3/2 35/3/2 36/3/2
f 36/3/2 35/3/2 37/3/2
f 38/3/2 39/3/2 40/3/2
f 40/3/2 39/3/2 41/3/2
f 40/3/2 41/3/2 43/3/2
f 42/3/2 43/3/2 44/3/2
f 43/3/2 41/3/2 45/3/2
f 44/3/2 43/3/2 45/3/2
f 45/3/2 41/3/2 46/3/2
f 47/2/2 48/2/2 51/2/2
f 49/2/2 50/2/2 52/2/2
f 52/2/2 50/2/2 53/2/2
f 47/2/2 51/2/2 54/2/2
f 51/2/2 52/2/2 54/2/2
f 54/2/2 52/2/2 55/2/2
f 56/3/2 57/3/2 60/3/2
f 60/3/2 57/3/2 61/3/2
f 58/3/2 59/3/2 62/3/2
f 62/3/2 59/3/2 63/3/2
f 64/3/2 65/3/2 66/3/2
f 66/3/2 65/3/2 67/3/2
f 66/2/2 67/2/2 68/2/2
f 68/2/2 67/2/2 69/2/2
f 72/3/3 71/3/3 70/3/3
f 73/3/3 71/3/3 72/3/3
f 78/3/3 75/3/3 74/3/3
f 79/3/3 75/3/3 78/3/3
f 80/2/3 77/2/3 76/2/3
f 81/2/3 77/2/3 80/2/3
f 87/2/3 83/2/3 82/2/3
f 88/2/3 83/2/3 87/2/3
f 89/3/3 85/3/3 84/3/3
f 90/3/3 85/3/3 89/3/3
f 91/3/3 85/3/3 90/3/3
f 92/3/3 87/3/3 86/3/3
f 93/3/3 87/3/3 92/3/3
f 95/3/3 93/3/3 92/3/3
f 96/2/3 94/2/3 93/2/3
f 96/3/3 93/3/3 95/3/3
f 97/2/3 94/2/3 96/2/3
f 100/3/3 99/3/3 98/3/3
f 101/3/3 99/3/3 100/3/3
f 104/3/3 103/3/3 102/3/3
f 105/3/3 103/3/3 104/3/3
f 106/3/4 107/3/4 108/3/4
f 108/3/4 107/3/4 109/3/4
f 110/2/4 111/2/4 114/2/4
f 114/2/4 111/2/4 115/2/4
f 112/3/4 113/3/4 118/3/4
f 113/3/4 114/3/4 118/3/4
f 118/3/4 114/3/4 119/3/4
f 119/3/4 114/3/4 120/3/4
f 120/3/4 114/3/4 121/3/4
f 116/2/4 117/2/4 122/2/4
f 122/2/4 117/2/4 123/2/4
f 120/3/4 121/3/4 124/3/4
f 121/2/4 122/2/4 125/2/4
f 124/3/4 121/3/4 125/3/4
f 125/2/4 122/2/4 126/2/4
f 127/3/4 128/3/4 129/3/4
f 129/3/4 128/3/4 130/3/4
f 131/2/4 132/2/4 135/2/4
f 135/2/4 132/2/4 136/2/4
f 133/3/4 134/3/4 137/3/4
f 137/3/4 134/3/4 138/3/4
f 142/3/5 140/3/5 139/3/5
f 143/3/5 140/3/5 142/3/5
f 145/3/5 142/3/5 141/3/5
f 146/3/5 142/3/5 145/3/5
f 148/3/5 145/3/5 144/3/5
f 149/3/5 145/3/5 148/3/5
f 150/3/5 147/3/5 146/3/5
f 151/3/5 147/3/5 150/3/5
f 154/3/5 153/3/5 152/3/5
f 155/3/5 153/3/5 154/3/5
f 158/3/5 157/3/5 156/3/5
f 159/3/5 157/3/5 158/3/5
f 163/2/5 161/2/5 160/2/5
f 164/2/5 161/2/5 163/2/5
f 165/2/5 163/2/5 162/2/5
f 166/2/5 163/2/5 165/2/5
f 168/2/5 167/2/5 166/2/5
f 169/2/5 167/2/5 168/2/5
f 170/3/6 171/3/6 172/3/6
f 172/3/6 171/3/6 173/3/6
f 174/3/6 175/3/6 178/3/6
f 178/3/6 175/3/6 179/3/6
f 176/3/6 177/3/6 180/3/6
f 180/3/6 177/3/6 181/3/6
f 182/3/6 183/3/6 184/3/6
f 184/3/6 183/3/6 185/3/6
f 186/2/6 187/2/6 188/2/6
f 188/2/6 187/2/6 189/2/6
f 190/2/6 191/2/6 193/2/6
f 193/2/6 191/2/6 194/2/6
f 192/2/6 193/2/6 195/2/6
f 195/2/6 193/2/6 196/2/6
f 197/2/6 198/2/6 199/2/6
f 199/2/6 198/2/6 200/2/6
